<svg height='300px' width='300px'  fill="#0080FF" xmlns="http://www.w3.org/2000/svg" xmlns:xlink="http://www.w3.org/1999/xlink" version="1.1" x="0px" y="0px" viewBox="0 0 100 100" enable-background="new 0 0 100 100" xml:space="preserve"><path d="M71.8,65H70c-6.4,0-10.2-6.5-15.5-17.2C49.1,37.1,43.1,25,30,25h-1.3c-1.7-3-5-5-8.7-5  c-5.5,0-10,4.5-10,10c0,5.5,4.5,10,10,10c3.7,0,6.9-2,8.7-5H30c6.4,0,10.2,6.5,15.5,17.2C50.9,62.9,56.9,75,70,75h1.8v5.5L90,70  L71.8,59.5V65z M20,36c-3.3,0-6-2.7-6-6s2.7-6,6-6s6,2.7,6,6S23.3,36,20,36z M49.6,35h22.2v5.5L90,30L71.8,19.5V25H38.9  C43.3,27.1,46.8,30.8,49.6,35z"></path></svg>